<svg width="63" height="63" viewBox="0 0 63 63" fill="none" xmlns="http://www.w3.org/2000/svg">
<rect x="0.366211" y="0.569336" width="62.4733" height="61.904" rx="8" fill="#F9AA01"/>
<path d="M30.8261 20.8461C25.2861 20.8461 20.8175 25.2835 20.8175 30.7848C20.8175 36.2862 25.2861 40.7236 30.8261 40.7236C36.3661 40.7236 40.8347 36.2862 40.8347 30.7848C40.8347 25.2835 36.3661 20.8461 30.8261 20.8461ZM30.8261 37.2463C27.246 37.2463 24.3192 34.3486 24.3192 30.7848C24.3192 27.2211 27.2373 24.3234 30.8261 24.3234C34.4149 24.3234 37.333 27.2211 37.333 30.7848C37.333 34.3486 34.4062 37.2463 30.8261 37.2463V37.2463ZM43.5786 20.4396C43.5786 21.7284 42.5333 22.7577 41.2441 22.7577C39.9462 22.7577 38.9096 21.7198 38.9096 20.4396C38.9096 19.1594 39.9549 18.1214 41.2441 18.1214C42.5333 18.1214 43.5786 19.1594 43.5786 20.4396ZM50.2074 22.7923C50.0593 19.687 49.3451 16.9364 47.0541 14.6701C44.7719 12.4038 42.0019 11.6945 38.8748 11.5388C35.6518 11.3572 25.9916 11.3572 22.7687 11.5388C19.6502 11.6859 16.8802 12.3952 14.5893 14.6614C12.2984 16.9277 11.5928 19.6784 11.436 22.7837C11.2531 25.9842 11.2531 35.5769 11.436 38.7774C11.5841 41.8827 12.2984 44.6333 14.5893 46.8996C16.8802 49.1659 19.6415 49.8752 22.7687 50.0309C25.9916 50.2125 35.6518 50.2125 38.8748 50.0309C42.0019 49.8838 44.7719 49.1745 47.0541 46.8996C49.3364 44.6333 50.0506 41.8827 50.2074 38.7774C50.3904 35.5769 50.3904 25.9928 50.2074 22.7923V22.7923ZM46.0437 42.2114C45.3643 43.9067 44.049 45.2129 42.3329 45.8962C39.7633 46.9083 33.6658 46.6747 30.8261 46.6747C27.9864 46.6747 21.8802 46.8996 19.3192 45.8962C17.6119 45.2215 16.2966 43.9154 15.6085 42.2114C14.5893 39.6596 14.8245 33.6047 14.8245 30.7848C14.8245 27.965 14.598 21.9014 15.6085 19.3583C16.2879 17.663 17.6032 16.3568 19.3192 15.6735C21.8889 14.6614 27.9864 14.895 30.8261 14.895C33.6658 14.895 39.772 14.6701 42.3329 15.6735C44.0402 16.3482 45.3556 17.6543 46.0437 19.3583C47.0629 21.9101 46.8277 27.965 46.8277 30.7848C46.8277 33.6047 47.0629 39.6683 46.0437 42.2114Z" fill="#1B1426"/>
</svg>
