<svg width="62" height="62" viewBox="0 0 62 62" fill="none" xmlns="http://www.w3.org/2000/svg">
<rect x="0.274902" y="0.567871" width="61.4657" height="60.9055" rx="8" fill="#F9AA01"/>
<path d="M46.7033 11.2263H13.7667C12.2575 11.2263 11.0312 12.4607 11.0312 13.9761V46.6158C11.0312 48.1312 12.2575 49.3656 13.7667 49.3656H46.7033C48.2125 49.3656 49.4473 48.1312 49.4473 46.6158V13.9761C49.4473 12.4607 48.2125 11.2263 46.7033 11.2263ZM22.6418 43.9171H16.948V25.7158H22.6504V43.9171H22.6418ZM19.7949 23.23C17.9684 23.23 16.4935 21.7572 16.4935 19.9524C16.4935 18.1476 17.9684 16.6748 19.7949 16.6748C21.6128 16.6748 23.0963 18.1476 23.0963 19.9524C23.0963 21.7657 21.6214 23.23 19.7949 23.23V23.23ZM43.985 43.9171H38.2912V35.0634C38.2912 32.9521 38.2483 30.2364 35.3328 30.2364C32.3659 30.2364 31.9114 32.5349 31.9114 34.9101V43.9171H26.2176V25.7158H31.6799V28.2017H31.757C32.5202 26.7715 34.381 25.2646 37.1507 25.2646C42.9131 25.2646 43.985 29.036 43.985 33.9396V43.9171V43.9171Z" fill="#1B1426"/>
</svg>
