<svg width="12" height="12" viewBox="0 0 12 12" fill="none" xmlns="http://www.w3.org/2000/svg">
<path d="M3.7656 0.468466L3.58831 0.780078H1.22447C0.788637 0.780078 0.436523 1.09169 0.436523 1.47739C0.436523 1.86309 0.788637 2.17471 1.22447 2.17471H10.6798C11.1157 2.17471 11.4678 1.86309 11.4678 1.47739C11.4678 1.09169 11.1157 0.780078 10.6798 0.780078H8.31599L8.1387 0.468466C8.00573 0.230943 7.73242 0.0827637 7.43447 0.0827637H4.46982C4.17188 0.0827637 3.89856 0.230943 3.7656 0.468466ZM10.6798 2.87202H1.22447L1.74648 10.2592C1.78588 10.8105 2.30297 11.2398 2.92594 11.2398H8.97835C9.60133 11.2398 10.1184 10.8105 10.1578 10.2592L10.6798 2.87202Z" fill="#F9AA01"/>
</svg>
