<svg width="30" height="10" viewBox="0 0 30 10" fill="none" xmlns="http://www.w3.org/2000/svg">
<path d="M7.27778 5C7.27778 7.60701 5.64892 9.5 3.88889 9.5C2.12886 9.5 0.5 7.60701 0.5 5C0.5 2.39299 2.12886 0.5 3.88889 0.5C5.64892 0.5 7.27778 2.39299 7.27778 5ZM18.3889 5C18.3889 7.60701 16.76 9.5 15 9.5C13.24 9.5 11.6111 7.60701 11.6111 5C11.6111 2.39299 13.24 0.5 15 0.5C16.76 0.5 18.3889 2.39299 18.3889 5ZM26.1111 9.5C24.3511 9.5 22.7222 7.60701 22.7222 5C22.7222 2.39299 24.3511 0.5 26.1111 0.5C27.8711 0.5 29.5 2.39299 29.5 5C29.5 7.60701 27.8711 9.5 26.1111 9.5Z" fill="white" stroke="black"/>
</svg>
